<?xml version="1.0" encoding="iso-8859-1"?>
<!-- Generator: Adobe Illustrator 19.0.0, SVG Export Plug-In . SVG Version: 6.00 Build 0)  -->
<svg fill="white" version="1.1" id="Capa_1" xmlns="http://www.w3.org/2000/svg" xmlns:xlink="http://www.w3.org/1999/xlink" x="0px" y="0px"
	 viewBox="0 0 512 512" style="enable-background:new 0 0 512 512;" xml:space="preserve">
<g>
	<g>
		<path d="M436,0H76C51.187,0,31,20.187,31,45v422c0,24.813,20.187,45,45,45h360c24.813,0,45-20.187,45-45V45
			C481,20.187,460.813,0,436,0z M451,467c0,8.271-6.729,15-15,15H76c-8.271,0-15-6.729-15-15V45c0-8.271,6.729-15,15-15h360
			c8.271,0,15,6.729,15,15V467z"/>
	</g>
</g>
<g>
	<g>
		<path d="M406,60H106c-8.284,0-15,6.716-15,15v122c0,8.284,6.716,15,15,15h300c8.284,0,15-6.716,15-15V75
			C421,66.716,414.284,60,406,60z M391,182H121V90h270V182z"/>
	</g>
</g>
<g>
	<g>
		<path d="M166,242h-60c-8.284,0-15,6.716-15,15v60c0,8.284,6.716,15,15,15h60c8.284,0,15-6.716,15-15v-60
			C181,248.716,174.284,242,166,242z M151,302h-30v-30h30V302z"/>
	</g>
</g>
<g>
	<g>
		<path d="M166,362h-60c-8.284,0-15,6.716-15,15v60c0,8.284,6.716,15,15,15h60c8.284,0,15-6.716,15-15v-60
			C181,368.716,174.284,362,166,362z M151,422h-30v-30h30V422z"/>
	</g>
</g>
<g>
	<g>
		<path d="M286,242h-60c-8.284,0-15,6.716-15,15v60c0,8.284,6.716,15,15,15h60c8.284,0,15-6.716,15-15v-60
			C301,248.716,294.284,242,286,242z M271,302h-30v-30h30V302z"/>
	</g>
</g>
<g>
	<g>
		<path d="M286,362h-60c-8.284,0-15,6.716-15,15v60c0,8.284,6.716,15,15,15h60c8.284,0,15-6.716,15-15v-60
			C301,368.716,294.284,362,286,362z M271,422h-30v-30h30V422z"/>
	</g>
</g>
<g>
	<g>
		<path d="M406,242h-60c-8.284,0-15,6.716-15,15v180c0,8.284,6.716,15,15,15h60c8.284,0,15-6.716,15-15V257
			C421,248.716,414.284,242,406,242z M391,422h-30V272h30V422z"/>
	</g>
</g>
<g>
</g>
<g>
</g>
<g>
</g>
<g>
</g>
<g>
</g>
<g>
</g>
<g>
</g>
<g>
</g>
<g>
</g>
<g>
</g>
<g>
</g>
<g>
</g>
<g>
</g>
<g>
</g>
<g>
</g>
</svg>
