<svg fill='white' id="Capa_1" enable-background="new 0 0 512 512" height="512" viewBox="0 0 512 512" width="512" xmlns="http://www.w3.org/2000/svg"><g><path d="m467 17h-422c-24.813 0-45 20.187-45 45v292c0 24.813 20.187 45 45 45h145.293l-11 66h-19.293c-8.284 0-15 6.716-15 15s6.716 15 15 15h192c8.284 0 15-6.716 15-15s-6.716-15-15-15h-19.293l-11-66h145.293c24.813 0 45-20.187 45-45v-292c0-24.813-20.187-45-45-45zm-164.707 448h-92.586l11-66h70.586zm179.707-111c0 8.271-6.729 15-15 15-10.702 0-409.447 0-422 0-8.271 0-15-6.729-15-15v-292c0-8.271 6.729-15 15-15h196v17c0 8.284 6.716 15 15 15s15-6.716 15-15v-17h196c8.271 0 15 6.729 15 15z"/><path d="m208 209c-8.284 0-15 6.716-15 15v49h-34v-97c0-8.284-6.716-15-15-15s-15 6.716-15 15v97h-34v-145c0-8.284-6.716-15-15-15s-15 6.716-15 15v160c0 8.284 6.716 15 15 15h128c8.284 0 15-6.716 15-15v-64c0-8.284-6.716-15-15-15z"/><path d="m360 121c-47.972 0-87 39.028-87 87 0 23.627 9.472 45.081 24.813 60.775.689.787.656.749 1.411 1.411 15.694 15.341 37.148 24.814 60.776 24.814 47.972 0 87-39.028 87-87s-39.028-87-87-87zm54.983 72h-39.983v-39.983c19.391 5.296 34.687 20.592 39.983 39.983zm-69.983-39.983v48.77l-34.471 34.471c-18.545-32.339-1.316-73.466 34.471-83.241zm-13.258 104.454 34.471-34.471h48.77c-9.79 35.839-50.946 52.99-83.241 34.471z"/></g></svg>