<svg id="Layer_5" enable-background="new 0 0 64 64" height="512" viewBox="0 0 64 64" width="512" xmlns="http://www.w3.org/2000/svg"><g><g><g><path d="m32 53.21c-.4.55-.71 1.15-.91 1.82l-2.09 6.97h-6v-6.99-7.01c0-1.1.9-2 2-2h7 7c1.1 0 2 .9 2 2v7 7h-6l-2.09-6.97c-.2-.66-.51-1.28-.91-1.82z" fill="#969faa"/></g><g><path d="m23 44c0 1.1.9 2 2 2-1.1 0-2 .9-2 2v7.01c-.28.37-.59.73-.93 1.06-1.81 1.81-4.31 2.93-7.07 2.93s-5.26-1.12-7.07-2.93-2.93-4.31-2.93-7.07 1.12-5.26 2.93-7.07c1.17-1.17 2.63-2.05 4.27-2.53.89-.26 1.83-.4 2.8-.4s1.91.14 2.8.4c1.63.47 3.1 1.36 4.27 2.53.33.33.64.69.92 1.06h.01z" fill="#69d6f4"/></g><g><path d="m51.8 39.4c4.16 1.21 7.2 5.05 7.2 9.6 0 5.52-4.48 10-10 10-3.27 0-6.18-1.57-8-4v-7c0-1.1-.9-2-2-2 1.1 0 2-.9 2-2v-1.01h.01c1.28-1.7 3.09-2.98 5.19-3.59.89-.26 1.83-.4 2.8-.4s1.91.14 2.8.4z" fill="#fcd770"/></g><g><path d="m33 32 1 9-2 2-2-2 1-9z" fill="#ff826e"/></g><g><path d="m34.2 30.2-1.2 1.8h-2l-1.2-1.8 2.2-2.2z" fill="#fc6e51"/></g><g><path d="m37.75 25-1.75 7-1.8-1.8-1.2 1.8 1 9-2 2-2-2 1-9-1.2-1.8-1.8 1.8-1.75-7h-14.25v6h2 2 5c1.1 0 2 .9 2 2v9.99 1.01c0 1.1.9 2 2 2h7 7c1.1 0 2-.9 2-2v-1.01-9.99c0-1.1.9-2 2-2h5 2 2v-6z" fill="#b4dd7f"/></g><g><path d="m37.75 25-1.75 7-1.8-1.8-2.2-2.2 4-4c.35.6 1 1 1.73 1z" fill="#a0d468"/></g><g><path d="m32 28-2.2 2.2-1.8 1.8-1.75-7h.02c.73 0 1.38-.4 1.73-1z" fill="#a0d468"/></g><g><path d="m26 10v2h-1c-.85 0-1.62.36-2.17.93-.54-1.06-.83-2.23-.83-3.43 0-4.14 3.36-7.5 7.5-7.5h5c2.07 0 3.94.84 5.3 2.2s2.2 3.23 2.2 5.3c0 1.2-.29 2.38-.83 3.43-.02-.02-.03-.03-.05-.05-.54-.54-1.29-.88-2.12-.88h-1v-.12c0-1.72-1.1-3.25-2.74-3.79l-.26-.09c-2.63 1.32-5.53 2-8.47 2z" fill="#b27946"/></g><g><path d="m12 25v6h-7c-.83 0-1.58-.34-2.12-.88s-.88-1.29-.88-2.12c0-1.66 1.34-3 3-3h1.18c-.12-.31-.18-.65-.18-1 0-.55.45-1 1-1h1.76c.79 0 1.56.32 2.12.88z" fill="#f0d0b4"/></g><g><path d="m57.82 25h1.18c.83 0 1.58.34 2.12.88s.88 1.29.88 2.12c0 1.66-1.34 3-3 3h-7v-6l1.12-1.12c.56-.56 1.33-.88 2.12-.88h1.76c.55 0 1 .45 1 1 0 .35-.06.69-.18 1z" fill="#f0d0b4"/></g><g><path d="m36 24-4 4-4-4c.12-.22.21-.46.25-.72l.33-2.35c.97.68 2.15 1.07 3.42 1.07s2.45-.39 3.42-1.07l.33 2.35c.04.26.13.5.25.72z" fill="#f0d0b4"/></g><g><path d="m41.17 12.93c.51.53.83 1.26.83 2.07 0 1.66-1.34 3-3 3h-1.35c.23-.63.35-1.3.35-2v-4h1c.83 0 1.58.34 2.12.88.02.02.03.03.05.05z" fill="#f0d0b4"/></g><g><path d="m38 12v4c0 .7-.12 1.37-.35 2-.29.85-.78 1.62-1.41 2.24-.25.25-.53.49-.82.69-.97.68-2.15 1.07-3.42 1.07s-2.45-.39-3.42-1.07c-1.02-.71-1.82-1.74-2.23-2.93-.23-.63-.35-1.3-.35-2v-4-2h.53c2.94 0 5.84-.68 8.47-2l.26.09c1.64.54 2.74 2.07 2.74 3.79z" fill="#f0d0b4"/></g><g><path d="m26.35 18h-1.35c-.83 0-1.58-.34-2.12-.88s-.88-1.29-.88-2.12c0-.81.32-1.54.83-2.07.55-.57 1.32-.93 2.17-.93h1v4c0 .7.12 1.37.35 2z" fill="#f0d0b4"/></g></g><g><path d="m59 32c2.206 0 4-1.794 4-4s-1.794-4-4-4c0-1.103-.897-2-2-2h-1.758c-1.054 0-2.084.427-2.828 1.172l-.828.828h-13.852c-.494 0-.92-.369-.989-.858l-.254-1.779c.767-.643 1.388-1.45 1.824-2.362h.685c2.206 0 4-1.794 4-4 0-.82-.25-1.582-.675-2.218.435-1.038.675-2.157.675-3.283 0-4.687-3.813-8.5-8.5-8.5h-5c-4.687 0-8.5 3.813-8.5 8.5 0 1.126.24 2.245.675 3.282-.425.635-.675 1.398-.675 2.218 0 2.206 1.794 4 4 4h.685c.435.913 1.057 1.719 1.824 2.362l-.254 1.779c-.069.49-.495.859-.989.859h-13.852l-.828-.828c-.744-.745-1.774-1.172-2.828-1.172h-1.758c-1.103 0-2 .897-2 2-2.206 0-4 1.794-4 4s1.794 4 4 4h7.763l-1.422 6.639c-4.269 1.513-7.341 5.58-7.341 10.361 0 6.065 4.935 11 11 11 2.606 0 5.053-.895 7-2.51v5.51h7.744l2.256-7.519 2.256 7.519h7.744v-5.51c1.947 1.615 4.394 2.51 7 2.51 6.065 0 11-4.935 11-11 0-4.781-3.072-8.848-7.341-10.361l-1.422-6.639zm-17 8.509v-7.509c0-.551.448-1 1-1h3.763l-1.419 6.622c-1.215.425-2.346 1.059-3.344 1.887zm1-10.509c-1.654 0-3 1.346-3 3v11c0 .551-.448 1-1 1h-14c-.552 0-1-.449-1-1v-11c0-1.654-1.346-3-3-3h-8v-4h12.47l1.988 7.956 2.186-2.186.321.482-1.013 9.116 3.048 3.046 3.047-3.047-1.013-9.116.321-.482 2.186 2.186 1.989-7.955h12.47v4zm-29 26v1.941c-1.733-.193-3.316-.88-4.611-1.916l1.368-1.368-1.414-1.414-1.368 1.368c-1.036-1.295-1.723-2.878-1.916-4.611h1.941v-2h-1.941c.193-1.733.88-3.316 1.916-4.611l1.368 1.368 1.414-1.414-1.368-1.368c1.295-1.036 2.878-1.723 4.611-1.916v1.941h2v-1.943c1.708.186 3.295.852 4.616 1.913l-1.373 1.373 1.414 1.414 1.343-1.343v.586c0 .771.301 1.468.78 2-.48.532-.78 1.229-.78 2v6.586l-1.343-1.343-1.414 1.414 1.372 1.373c-1.32 1.061-2.908 1.727-4.615 1.913v-1.943zm8-15.491c-.998-.828-2.129-1.462-3.345-1.887l-1.418-6.622h3.763c.552 0 1 .449 1 1zm8.586-12.509-2.044 2.044-1.077-4.308c.193-.085.374-.191.544-.314zm5.406-2.578c.17.123.35.229.543.314l-1.077 4.308-2.044-2.044zm-3.039 15.211-.953.953-.953-.953.848-7.633h.209zm-.04-10.306-.448.673h-.93l-.449-.673.914-.913zm22.329-6.327h1.758c0 1.103-.897 2-2 2v2c1.474 0 2.75-.81 3.444-2h.556c1.103 0 2 .897 2 2s-.897 2-2 2h-6v-4.586l.828-.828c.372-.373.888-.586 1.414-.586zm-16.242-7h-.08c.047-.328.08-.66.08-1v-3c1.103 0 2 .897 2 2s-.897 2-2 2zm-14 0c-1.103 0-2-.897-2-2s.897-2 2-2v3c0 .34.033.672.08 1zm0-8v2c-.612 0-1.186.149-1.705.396-.187-.614-.295-1.253-.295-1.896 0-3.584 2.916-6.5 6.5-6.5h5c3.584 0 6.5 2.916 6.5 6.5 0 .643-.108 1.282-.295 1.896-.519-.247-1.093-.396-1.705-.396h-.084c-.318-1.778-1.575-3.274-3.335-3.86l-.657-.22-.371.185c-2.479 1.24-5.254 1.895-8.025 1.895zm2 7v-5.006c2.781-.067 5.552-.724 8.067-1.915 1.162.442 1.933 1.553 1.933 2.804v4.117c0 2.757-2.243 5-5 5s-5-2.243-5-5zm5 7c.93 0 1.817-.186 2.63-.517l.134.941c.016.111.049.215.077.321l-2.841 2.841-2.841-2.841c.028-.106.061-.21.077-.321l.134-.941c.813.331 1.7.517 2.63.517zm-29 5c0-1.103.897-2 2-2h.556c.694 1.19 1.97 2 3.444 2v-2c-1.103 0-2-.897-2-2h1.758c.526 0 1.042.213 1.414.586l.828.828v4.586h-6c-1.103 0-2-.897-2-2zm11.808 4h.384l1.309 6.111c-.494-.067-.993-.111-1.501-.111-.511 0-1.009.047-1.502.115zm25.192 29h-4.256l-1.878-6.258c-.662-2.208-2.363-3.961-4.55-4.69l-.633 1.897c.802.267 1.513.726 2.079 1.322-.264.463-.475.956-.629 1.47l-1.877 6.259h-4.256v-13c0-.551.448-1 1-1h14c.552 0 1 .449 1 1zm18-12c0 4.962-4.037 9-9 9-2.753 0-5.281-1.228-7-3.363v-6.637c0-.771-.301-1.468-.78-2 .48-.532.78-1.229.78-2v-.638c1.719-2.135 4.248-3.362 7-3.362 4.963 0 9 4.038 9 9zm-7.498-10.885c-.493-.068-.991-.115-1.502-.115-.508 0-1.007.044-1.501.111l1.309-6.111h.384z"/><path d="m48 42v2.145c-1.155.366-2 1.435-2 2.709 0 1.088.604 2.066 1.578 2.553l1.949.975c.292.145.473.438.473.764 0 .471-.384.854-.854.854h-.291c-.471 0-.855-.383-.855-.854v-1.146h-2v1.146c0 1.274.845 2.343 2 2.709v2.145h2v-2.145c1.155-.366 2-1.435 2-2.709 0-1.088-.604-2.066-1.578-2.553l-1.949-.975c-.292-.145-.473-.438-.473-.764 0-.471.384-.854.854-.854h.291c.471 0 .855.383.855.854v.146h2v-.146c0-1.274-.845-2.343-2-2.709v-2.145z"/><path d="m16 48.586-3.293-3.293-1.414 1.414 2.707 2.707v2.586h2z"/></g></g></svg>