<svg fill="white" height="511pt" viewBox="0 1 511 511.99938" width="511pt" xmlns="http://www.w3.org/2000/svg"><path d="m216.5 366c5.519531 0 10-4.480469 10-10s-4.480469-10-10-10-10 4.480469-10 10 4.480469 10 10 10zm0 0"/><path d="m3.429688 389.070312 120 120c3.90625 3.90625 10.234374 3.90625 14.140624 0l66-66c3.90625-3.90625 3.90625-10.234374 0-14.140624l-2.929687-2.929688h144.148437c12.660157 0 24.742188-4.746094 34.058594-13.394531l121.316406-113.699219c11.613282-10.785156 15.460938-27.917969 9.570313-42.628906-4.257813-10.648438-12.953125-18.796875-23.851563-22.355469-10.902343-3.566406-22.726562-2.121094-32.453124 3.957031-.0625.039063-26.933594 17.671875-26.933594 17.671875-.183594-54.207031-32.945313-112.011719-78.042969-138.035156 2.574219-2.957031 4.597656-6.457031 5.886719-10.375 5.160156-15.699219-3.417969-32.691406-19.140625-37.882813-.492188-.164062-.984375-.308593-1.476563-.460937l25.742188-46.242187c1.480468-2.660157 1.671875-5.851563.511718-8.664063-1.15625-2.816406-3.53125-4.953125-6.457031-5.800781-18.457031-5.367188-37.640625-8.089844-57.019531-8.089844-19.375 0-38.5625 2.722656-57.019531 8.085938-2.925781.851562-5.300781 2.984374-6.460938 5.800781-1.15625 2.816406-.96875 6.007812.515625 8.667969l25.742188 46.242187c-.5.15625-1 .304687-1.5.46875-15.699219 5.183594-24.273438 22.171875-19.113282 37.882813 1.289063 3.910156 3.328126 7.398437 5.910157 10.359374-45.769531 26.410157-78.074219 84.808594-78.074219 138.492188 0 1.464844.035156 2.910156.082031 4.34375-17.910156 4.886719-34.5625 13.789062-48.566406 26.050781l-30.390625 26.589844-4.054688-4.054687c-3.90625-3.90625-10.234374-3.90625-14.140624 0l-66 66c-3.90625 3.90625-3.90625 10.234374 0 14.140624zm253.902343-364.886718c12.8125-2.78125 25.9375-4.183594 39.167969-4.183594s26.355469 1.402344 39.171875 4.183594l-22.285156 40.027344c-11.234375-1.566407-22.546875-1.566407-33.769531 0zm6.6875 64.082031c20.519531-6.714844 42.890625-7.222656 64.933594-.007813 5.246094 1.730469 8.109375 7.402344 6.386719 12.636719-1.296875 3.941407-4.8125 6.617188-8.886719 6.855469-19.71875-6.269531-40.199219-6.28125-59.910156-.019531 0 0 0 0-.003907 0-4.109374-.257813-7.597656-2.945313-8.878906-6.832031-1.722656-5.242188 1.140625-10.914063 6.359375-12.632813zm5.53125 39.550781c17.339844-6.246094 35.304688-6.394531 52.6875-.421875 46.460938 15.976563 84.261719 73.667969 84.261719 128.605469 0 4.65625-.292969 9.09375-.871094 13.242188l-48.066406 31.535156c-7.441406-9.21875-18.71875-14.777344-31.0625-14.777344h-20v-11.71875c11.640625-4.128906 20-15.246094 20-28.28125 0-16.542969-13.457031-30-30-30-5.511719 0-10-4.484375-10-10s4.488281-10 10-10c3.542969 0 7.28125 1.808594 10.816406 5.226562 3.96875 3.839844 10.300782 3.734376 14.140625-.230468 3.839844-3.96875 3.734375-10.300782-.234375-14.140625-5.074218-4.914063-10.152344-7.691407-14.722656-9.207031v-11.648438c0-5.523438-4.476562-10-10-10s-10 4.476562-10 10v11.71875c-11.636719 4.128906-20 15.246094-20 28.28125 0 16.542969 13.457031 30 30 30 5.515625 0 10 4.484375 10 10s-4.484375 10-10 10c-4.273438 0-8.882812-2.6875-12.984375-7.566406-3.554687-4.226563-9.863281-4.773438-14.089844-1.21875-4.226562 3.554687-4.773437 9.863281-1.21875 14.089844 5.34375 6.359374 11.632813 10.789062 18.292969 13.023437v11.671875h-3.328125c-4.914063 0-7.121094-3.203125-10.582031-5.441406-21.128906-15.835938-47.300782-24.558594-73.699219-24.558594-4.128906 0-8.265625.214844-12.382813.632812 0-.210937-.007812-.417968-.007812-.632812 0-54.167969 37.257812-111.667969 83.050781-128.183594zm-138.363281 173.625c18.789062-16.453125 42.933594-25.441406 67.703125-25.441406 22.101563 0 44.011719 7.300781 61.691406 20.554688 2.550781 1.492187 9.652344 9.445312 22.585938 9.445312h43.332031c11.382812 0 20 9.253906 20 20 0 11.027344-8.972656 20-20 20h-70c-5.523438 0-10 4.476562-10 10s4.476562 10 10 10h70c22.054688 0 40-17.945312 40-40 0-2.292969-.203125-4.554688-.585938-6.78125l98.199219-64.429688c4.671875-2.886718 10.339844-3.5625 15.558594-1.859374 5.25 1.71875 9.441406 5.644531 11.492187 10.777343 2.886719 7.203125 1.074219 15.269531-4.644531 20.578125l-121.3125 113.695313c-5.570312 5.171875-12.820312 8.019531-20.417969 8.019531h-164.148437l-78.839844-78.84375zm-54.6875 28.699219 105.859375 105.859375-51.859375 51.859375-105.859375-105.859375zm0 0"/></svg>