 <svg viewBox="0 0 58 59" xmlns="http://www.w3.org/2000/svg">
              <g id="029---Controlling-Interest" fill="none">
                <circle id="Oval" cx="29" cy="14" fill="#f3d55b" r="13" />
                <path
                  id="Shape"
                  d="m29 19.5c-2.54 0-3.53-.87-3.71-1-.4142135-.3921222-.4321221-1.0457864-.04-1.46.3921222-.4142135 1.0457864-.4321221 1.46-.04.69943.3832507 1.4944798.5568423 2.29.5.75 0 2-.16 2-1.25 0-.84-.32-1-2.12-1.26-1.45-.18-3.88-.48-3.88-3.24 0-2.11 2.06-3.25 4-3.25 1.5339698-.09936095 3.0073361.61453819 3.88 1.88.2761423.4832492.1082491 1.0988576-.375 1.3749999-.4832492.2761424-1.0988576.1082492-1.375-.3749999-.86-1.33-4.13-1-4.13.39 0 .84.32 1 2.12 1.26 1.45.18 3.88.48 3.88 3.24 0 1.48-1 3.23-4 3.23z"
                  fill="#b19046"
                />
                <path
                  id="Shape"
                  d="m29 21c-.5522847 0-1-.4477153-1-1v-1.5c0-.5522847.4477153-1 1-1s1 .4477153 1 1v1.5c0 .5522847-.4477153 1-1 1z"
                  fill="#b19046"
                />
                <path
                  id="Shape"
                  d="m29 10.5c-.5522847 0-1-.4477153-1-1v-1.5c0-.55228475.4477153-1 1-1s1 .44771525 1 1v1.5c0 .5522847-.4477153 1-1 1z"
                  fill="#b19046"
                />
                <circle id="Oval" cx="29" cy="39" fill="#fdd7ad" r="8" />
                <path
                  id="Shape"
                  d="m29 28c-7.7319865 0-14-6.2680135-14-14s6.2680135-14 14-14 14 6.2680135 14 14c0 3.7130309-1.4749958 7.2739856-4.1005051 9.8994949s-6.186464 4.1005051-9.8994949 4.1005051zm0-26c-6.627417 0-12 5.372583-12 12s5.372583 12 12 12 12-5.372583 12-12c0-3.1825979-1.2642821-6.23484483-3.5147186-8.48528137-2.2504366-2.25043655-5.3026835-3.51471863-8.4852814-3.51471863z"
                  fill="#f0c419"
                />
                <path
                  id="Shape"
                  d="m56 40.19-9.55 9c-.9269801.8921623-1.4505425 2.1234366-1.45 3.41v5.4c0 .5522847-.4477153 1-1 1h-30c-.5522847 0-1-.4477153-1-1v-5.4c-.0018195-1.2979698-.5369456-2.5381607-1.48-3.43l-9.52-8.98c-2.61613815-2.7118998-2.61613815-7.0081002 0-9.72l4.07-4.27c1.0991491-1.1548022 2.79282812-1.5197166 4.27-.92 1.2114719.5322601 2.0813184 1.6292053 2.3234845 2.9300975s-.1746909 2.6373622-1.1134845 3.5699025l-3 3.1c-.23881598.2447256-.23881598.6352744 0 .88 5.06 5 7.23 7.61 12.11 9.6 8.1385402 3.3296024 17.4780371 1.4931624 23.75-4.67l5-4.93c.238816-.2447256.238816-.6352744 0-.88l-3-3.1c-.9387936-.9325403-1.3556506-2.2690103-1.1134845-3.5699025s1.1120126-2.3978374 2.3234845-2.9300975c1.4771719-.5997166 3.1708509-.2348022 4.27.92l4.12 4.27c2.6133501 2.7145905 2.6089301 7.0107925-.01 9.72z"
                  fill="#5d4c72"
                />
                <path
                  id="Shape"
                  d="m53.47 40.22-8.65 8.85c-.8674512.9066312-1.3480312 2.1152541-1.34 3.37v5.32c.0163723.2527209-.0699213.5013568-.2393371.6895966s-.4076196.3001566-.6606629.3104034h-27.16c-.2530433-.0102468-.4912471-.1221636-.6606629-.3104034s-.2557094-.4368757-.2393371-.6895966v-5.32c.0080312-1.2547459-.4725488-2.4633688-1.34-3.37l-8.65-8.85c-2.36693274-2.7547344-2.36693274-6.8252656 0-9.58l3.72-4.21c.54083777-.6210302 1.28544917-1.0287936 2.1-1.15 1.2114719.5322601 2.0813184 1.6292053 2.3234845 2.9300975s-.1746909 2.6373622-1.1134845 3.5699025l-3 3.1c-.23881598.2447256-.23881598.6352744 0 .88 5.06 5 7.23 7.61 12.11 9.6 8.1385402 3.3296024 17.4780371 1.4931624 23.75-4.67l5-4.93c.238816-.2447256.238816-.6352744 0-.88l-3-3.1c-.9387936-.9325403-1.3556506-2.2690103-1.1134845-3.5699025s1.1120126-2.3978374 2.3234845-2.9300975c.8151219.1195049 1.5602883.5275722 2.1 1.15l3.72 4.21c2.3726905 2.7497904 2.3811885 6.8203267.02 9.58z"
                  fill="#7d6599"
                />
                <g fill="#f29c1f">
                  <path
                    id="Shape"
                    d="m50 15h-3c-.5522847 0-1-.4477153-1-1s.4477153-1 1-1h3c.5522847 0 1 .4477153 1 1s-.4477153 1-1 1z"
                  />
                  <path
                    id="Shape"
                    d="m48 21c-.31 0-.25 0-2.45-1.11-.3460386-.1440974-.5824323-.4696151-.6123817-.8432591s.1515756-.73266.4702434-.9300368c.3186678-.1973769.7209575-.1999648 1.0421383-.0067041l2 1c.4101627.2101126.6236218.6733224.51688 1.1216381-.1067419.4483157-.5060402.7656308-.96688.7683619z"
                  />
                  <path
                    id="Shape"
                    d="m46 10c-.4608398-.0027311-.8601381-.32004622-.96688-.76836191-.1067418-.44831569.1067173-.91152544.51688-1.12163809l2-1c.4835272-.20135037 1.0404963.00451411 1.2768341.47193782.2363378.4674237.0719586 1.03801484-.3768341 1.30806218-2.2 1.11-2.13 1.11-2.45 1.11z"
                  />
                  <path
                    id="Shape"
                    d="m11 15h-3c-.55228475 0-1-.4477153-1-1s.44771525-1 1-1h3c.5522847 0 1 .4477153 1 1s-.4477153 1-1 1z"
                  />
                  <path
                    id="Shape"
                    d="m10 21c-.4608398-.0027311-.86013814-.3200462-.96687997-.7683619s.10671726-.9115255.51687997-1.1216381l2-1c.3211808-.1932607.7234705-.1906728 1.0421383.0067041.3186678.1973768.5001928.5563928.4702434.9300368s-.2663431.6991617-.6123817.8432591c-2.2 1.11-2.13 1.11-2.45 1.11z"
                  />
                  <path
                    id="Shape"
                    d="m12 10c-.31 0-.25 0-2.45-1.11-.44879274-.27004734-.61317193-.84063848-.3768341-1.30806218.23633783-.46742371.79330693-.67328819 1.2768341-.47193782l2 1c.4101627.21011265.6236218.6733224.51688 1.12163809-.1067419.44831569-.5060402.76563081-.96688.76836191z"
                  />
                </g>
              </g>
            </svg>