<svg fill="white" id="Capa_1" enable-background="new 0 0 507.46 507.46" height="512" viewBox="0 0 507.46 507.46" width="512" xmlns="http://www.w3.org/2000/svg"><g><path d="m478.712 28.747c-38.33-38.329-100.699-38.33-139.029 0-18.753 18.753-28.306 43.261-28.709 67.893l-26.729-26.729-121.794 121.795 30.872 30.872-182.988 194.82 29.257 29.257-39.592 39.592 21.213 21.213 39.592-39.592 29.257 29.257 194.821-182.987 30.871 30.871 121.794-121.794-26.729-26.729c24.632-.403 49.14-9.955 67.894-28.708 38.329-38.332 38.329-100.7-.001-139.031zm-387.996 426.605-38.608-38.608 162.438-172.942 49.112 49.112zm225.037-152.77-110.875-110.876 79.368-79.367 110.876 110.875zm141.747-156.019c-26.629 26.628-69.954 26.632-96.589.014l-.029-.029c-26.618-26.635-26.614-69.959.014-96.588 13.318-13.318 30.808-19.975 48.302-19.975 17.49 0 34.986 6.66 48.302 19.975 26.632 26.634 26.632 69.97 0 96.603z"/></g></svg>