<svg fill="white" id="Capa_1" enable-background="new 0 0 512 512" height="512" viewBox="0 0 512 512" width="512" xmlns="http://www.w3.org/2000/svg"><g><path d="m236.574 63.425-76.275-22.797c-3.739-1.116-7.767-.733-11.228 1.071l-88.056 45.915v-1.614c0-8.284-6.715-15-14.998-15h-31.019c-8.283.001-14.998 6.716-14.998 15.001s6.715 15 14.998 15h16.02v165h-16.02c-8.283 0-14.998 6.716-14.998 15s6.715 15 14.998 15h31.018c8.283 0 14.998-6.716 14.998-15v-15c144.873-.292 140.765.693 148.618-.84 25.643 29.249 62.038 45.84 101.355 45.84 74.431 0 134.986-60.561 134.986-135 .001-107.994-120.696-171.418-209.399-112.576zm-60.571 112.576h-32.147l24.365-28.116 10.195 2.683c-1.577 8.239-2.413 16.74-2.413 25.433zm-114.988-54.555 96.527-50.331 52.272 15.623c-9.201 10.418-16.819 22.262-22.481 35.155l-20.511-5.398c-5.531-1.457-11.407.36-15.151 4.682l-51.994 60c-8.396 9.688-1.503 24.824 11.334 24.824h89.989c8.271 0 14.998 6.729 14.998 15s-6.728 15-14.998 15h-139.985zm249.973 159.555c-28.717 0-55.433-11.384-75.105-31.615 22.463-27.56 5.314-69.187-29.88-73.1-.151-58.519 47.481-105.285 104.985-105.285 57.891 0 104.989 47.103 104.989 105s-47.097 105-104.989 105z"/><path d="m335.824 168.007c-12.384-9.651-28.814-11.637-31.902-17.213-.715-1.29.185-4.058 2.253-5.449 3.147-2.116 10.669-1.216 13.016.949 6.088 5.617 15.577 5.235 21.193-.855 5.617-6.089 5.234-15.579-.855-21.196-3.928-3.622-8.826-6.29-14.145-7.967-.193-8.116-6.819-14.64-14.98-14.64-8.283 0-14.998 6.716-14.998 15v.633c-18.959 7.868-27.322 30.731-17.725 48.06 6.745 12.18 18.346 16.762 27.668 20.443 6.01 2.373 16.313 6.03 15.59 12.482-.338 3.028-2.764 6.174-5.902 7.649-4.784 2.256-14.907.721-20.828-3.154-6.931-4.535-16.227-2.593-20.762 4.341-4.535 6.933-2.592 16.229 4.34 20.765 4.87 3.186 11.004 5.797 17.618 7.388v.12c0 8.284 6.715 15 14.998 15s14.998-6.716 14.998-15v-1.292c27.054-10.461 35.896-46.209 10.423-66.064z"/><path d="m342.804 403.967-16.818 16.82v-69.836c0-8.284-6.715-15-14.998-15s-14.998 6.716-14.998 15v69.837l-16.819-16.82c-5.857-5.857-15.354-5.857-21.211 0-5.858 5.857-5.858 15.355 0 21.213l42.422 42.427c5.851 5.854 15.355 5.858 21.211 0l42.421-42.427c5.858-5.857 5.858-15.355 0-21.213-5.856-5.858-15.353-5.858-21.21-.001z"/><path d="m500.88 338.871c-7.996-2.137-16.225 2.604-18.37 10.606l-6.156 22.977-34.915-60.481c-4.142-7.175-13.315-9.633-20.488-5.49-7.174 4.142-9.632 13.315-5.49 20.49l34.914 60.48-22.974-6.157c-7.989-2.136-16.224 2.604-18.369 10.607-2.143 8.002 2.604 16.227 10.606 18.371l57.95 15.529c7.998 2.139 16.223-2.598 18.369-10.606l15.528-57.955c2.144-8.002-2.604-16.227-10.605-18.371z"/><path d="m194.573 381.296-22.973 6.157 34.914-60.48c4.142-7.175 1.684-16.349-5.49-20.49-7.173-4.144-16.347-1.684-20.488 5.49l-34.914 60.48-6.156-22.976c-2.144-8.001-10.365-12.746-18.37-10.606-8.001 2.145-12.749 10.369-10.605 18.372l15.528 57.955c2.139 7.983 10.343 12.752 18.37 10.606l57.949-15.529c8.001-2.145 12.749-10.37 10.605-18.372-2.144-8.001-10.368-12.746-18.37-10.607z"/></g></svg>