<svg id="regular" fill="white" enable-background="new 0 0 24 24" height="512" viewBox="0 0 24 24" width="512" xmlns="http://www.w3.org/2000/svg"><path d="m0 1.25v21.5c0 .414.336.75.75.75h3.955c.414 0 .75-.336.75-.75v-21.5c0-.414-.336-.75-.75-.75h-3.955c-.414 0-.75.336-.75.75zm1.5.75h2.455v20h-2.455z"/><path d="m15.172.5c-4.882 0-8.854 3.957-8.854 8.82 0 4.852 3.972 8.799 8.854 8.799 4.868 0 8.828-3.948 8.828-8.799 0-4.863-3.96-8.82-8.828-8.82zm0 16.119c-4.055 0-7.354-3.274-7.354-7.299 0-4.036 3.299-7.32 7.354-7.32 4.041 0 7.328 3.284 7.328 7.32 0 4.024-3.287 7.299-7.328 7.299z"/></svg>