<svg id="Capa_1" enable-background="new 0 0 511.996 511.996" height="512" viewBox="0 0 511.996 511.996" width="512" xmlns="http://www.w3.org/2000/svg"><g><g><g><path d="m396.577 410.937v71.799c0 12.02-9.74 21.76-21.75 21.76h-52.88c-8.86 0-16.84-5.37-20.16-13.59l-4.74-11.69-27.66-68.279z" fill="#ffcbbe"/><path d="m242.608 410.937-27.66 68.279-4.74 11.69c-3.32 8.22-11.3 13.59-20.16 13.59h-52.88c-12.01 0-21.75-9.74-21.75-21.76v-71.799z" fill="#ffcbbe"/><g fill="#eaac9d"><path d="m167.466 504.5h-30.3c-12.01 0-21.75-9.74-21.75-21.76v-71.799h30.29v71.799c0 12.02 9.74 21.76 21.76 21.76z"/><g><path d="m115.419 410.937h127.189l-27.66 68.279c-10.64-.23-21.29-.56-31.94-.98-25.15-.99-48.4-9.4-67.59-23.11v-44.189z"/><path d="m396.577 410.937v44.19c-19.19 13.71-42.44 22.12-67.59 23.11-10.65.42-21.3.75-31.94.98l-27.66-68.279h127.19z"/></g><path d="m346.687 504.496h-24.74c-8.86 0-16.84-5.37-20.16-13.59l-4.74-11.69-27.66-68.279h24.74l27.66 68.279 4.74 11.69c3.321 8.22 11.3 13.59 20.16 13.59z"/></g><g><path d="m449.799 296.415c-.069 15.8-.423 31.611-1.04 47.411-2.57 64.958-54.813 117.019-119.771 119.566-48.656 1.919-97.323 1.919-145.979 0-64.958-2.548-117.201-54.608-119.771-119.566-.617-15.8-.971-31.611-1.04-47.411-.446-95.895 74.302-174.745 168.941-180.446v34.124c0 7.837 6.352 14.2 14.189 14.2h21.341c7.837 0 14.189-6.363 14.189-14.2v-34.124c94.638 5.701 169.386 84.551 168.941 180.446z" fill="#ffcbbe"/></g><g><path d="m212.312 118.106c-41.504 28.686-70.67 98.054-70.453 178.721.034 16.862.263 33.713.651 50.575 1.211 51.969 19.981 96.203 46.519 116.219-2.011-.069-4.01-.149-6.021-.228-64.947-2.548-117.201-54.608-119.772-119.566-.617-15.8-.971-31.611-1.04-47.411-.41-89.441 64.583-164.053 150.116-178.31z" fill="#eaac9d"/></g><g><path d="m89.467 310.684s-24.826-37.727-28.359-100.025c-.953-16.796 13.567-30.285 30.244-28.069 24.371 3.239 60.706 12.536 98.564 38.205 0 0-50.415-4.633-50.415 50.415" fill="#eaac9d"/><path d="m422.529 310.684s24.826-37.727 28.359-100.025c.953-16.796-13.567-30.285-30.244-28.069-24.371 3.239-60.706 12.536-98.564 38.205" fill="#ffcbbe"/></g><path d="m281.729 302.706c-17.154-.562-34.308-.562-51.463 0-25.093.823-45.056 21.165-45.683 46.264-.158 6.333-.158 12.666 0 18.999.627 25.099 20.59 45.441 45.683 46.264 17.154.562 34.308.562 51.463 0 25.093-.823 45.056-21.165 45.683-46.264.158-6.333.158-12.666 0-18.999-.626-25.099-20.589-45.441-45.683-46.264z" fill="#ffddce"/></g><circle cx="171.741" cy="81.634" fill="#ffd064" r="74.134"/></g><g><path d="m447.464 183.983c-7.508-6.961-17.64-10.183-27.808-8.828-1.771.235-3.616.507-5.516.81-33.062-39.84-81.217-64.363-132.831-67.471-2.079-.125-4.087.61-5.593 2.026-1.505 1.417-2.358 3.393-2.358 5.46v34.11c0 3.694-3.001 6.7-6.69 6.7h-21.34c-3.689 0-6.69-3.006-6.69-6.7v-21.752c9.276-13.246 14.74-29.346 14.74-46.708 0-45.011-36.623-81.63-81.64-81.63-45.011 0-81.63 36.619-81.63 81.63 0 4.084.301 8.148.894 12.079.617 4.096 4.433 6.912 8.535 6.297 4.096-.618 6.915-4.439 6.297-8.535-.481-3.192-.726-6.503-.726-9.841 0-36.74 29.89-66.63 66.63-66.63 36.745 0 66.64 29.89 66.64 66.63 0 36.746-29.895 66.64-66.64 66.64-23.371 0-44.626-11.914-56.855-31.869-2.165-3.531-6.781-4.641-10.313-2.476-3.531 2.164-4.64 6.782-2.476 10.313 6.124 9.992 14.097 18.336 23.34 24.711-10.077 8.029-19.302 17.075-27.553 27.019-1.909-.305-3.762-.578-5.541-.814-10.164-1.352-20.301 1.867-27.808 8.828-7.517 6.969-11.494 16.847-10.913 27.101.889 15.673 3.077 29.816 5.879 42.268-3.242 14.074-4.868 28.559-4.8 43.091.069 15.716.421 31.758 1.046 47.684 1.317 33.296 15.056 64.617 38.686 88.193 4.255 4.246 8.765 8.166 13.489 11.756v38.661c0 16.134 13.121 29.26 29.25 29.26h52.88c11.986 0 22.629-7.176 27.11-18.273l8.776-21.661c10.013.161 20.036.262 30.063.262 10.025 0 20.048-.101 30.063-.262l8.773 21.654c4.484 11.105 15.127 18.281 27.113 18.281h52.88c16.129 0 29.25-13.126 29.25-29.26v-38.625c6.431-4.903 12.468-10.427 18.025-16.553 2.783-3.067 2.553-7.811-.516-10.594-3.068-2.784-7.812-2.553-10.594.516-21.345 23.528-50.572 37.171-82.301 38.415-48.234 1.904-97.15 1.904-145.391 0-29.539-1.16-57.339-13.304-78.278-34.195-20.945-20.898-33.124-48.659-34.291-78.165-.618-15.75-.966-31.616-1.034-47.162-.014-2.949.063-5.895.199-8.836 6.614 16.923 12.788 26.484 13.304 27.268 1.44 2.188 3.828 3.375 6.266 3.375 1.411 0 2.84-.398 4.108-1.23 3.46-2.269 4.427-6.916 2.164-10.379-.237-.363-23.779-37.03-27.144-96.336-.327-5.774 1.908-11.333 6.135-15.252 4.219-3.911 9.916-5.719 15.633-4.958 23.154 3.077 58.491 11.99 95.344 36.978 3.427 2.325 8.091 1.429 10.417-1.999 2.324-3.428 1.43-8.092-1.999-10.417-28.767-19.506-56.71-29.82-79.335-35.24 7.583-8.308 15.962-15.836 25.01-22.519 9.91 4.193 20.723 6.441 31.939 6.441 19.694 0 37.782-7.01 51.899-18.665v5.485c0 11.965 9.73 21.7 21.69 21.7h21.34c11.96 0 21.69-9.735 21.69-21.7v-25.958c41.73 4.477 80.495 24.186 108.843 55.217-22.624 5.42-50.565 15.735-79.33 35.239-3.429 2.325-4.323 6.988-1.999 10.417 2.326 3.428 6.99 4.324 10.417 1.999 36.853-24.988 72.189-33.901 95.344-36.978 5.717-.76 11.416 1.048 15.633 4.958 4.227 3.918 6.462 9.478 6.135 15.251-3.364 59.307-26.906 95.974-27.144 96.337-2.268 3.459-1.307 8.103 2.149 10.377 1.271.836 2.701 1.236 4.116 1.236 2.438 0 4.831-1.188 6.272-3.378.516-.783 6.689-10.344 13.304-27.267.136 2.942.213 5.888.199 8.839-.068 15.542-.416 31.409-1.034 47.159-.708 18.03-5.414 35.193-13.989 51.009-1.974 3.642-.622 8.194 3.02 10.168 1.136.616 2.36.908 3.567.908 2.663 0 5.242-1.421 6.601-3.927 9.679-17.854 14.991-37.224 15.79-57.57.625-15.923.977-31.965 1.046-47.678.068-14.536-1.558-29.02-4.8-43.094 2.802-12.451 4.99-26.595 5.879-42.268.582-10.256-3.396-20.133-10.912-27.103zm-118.182 286.901c21.369-.838 41.73-6.666 59.795-16.874v28.726c0 7.863-6.393 14.26-14.25 14.26h-52.88c-5.839 0-11.021-3.493-13.208-8.906l-6.627-16.357c9.074-.224 18.137-.492 27.17-.849zm-119.398.849-6.63 16.365c-2.184 5.405-7.366 8.898-13.205 8.898h-52.88c-7.857 0-14.25-6.397-14.25-14.26v-28.795c18.14 10.239 38.566 16.109 59.793 16.943 9.036.357 18.099.625 27.172.849z"/><path d="m406.518 265.812c1.271.836 2.701 1.236 4.116 1.236 2.438 0 4.831-1.188 6.272-3.378.369-.561 9.051-13.983 10.28-35.646.271-4.799-1.592-9.423-5.111-12.687-3.518-3.261-8.266-4.771-13.025-4.137-8.452 1.124-21.333 4.366-34.701 13.43-3.429 2.325-4.323 6.988-1.999 10.417 2.326 3.428 6.99 4.324 10.417 1.999 10.945-7.421 21.409-10.065 28.259-10.976.327-.04.613.046.851.267.241.223.354.505.334.839-.981 17.304-7.708 28.049-7.854 28.28-2.253 3.457-1.289 8.086 2.161 10.356z"/><path d="m100.97 226.069c6.851.911 17.314 3.554 28.26 10.976 3.427 2.325 8.091 1.429 10.417-1.999 2.324-3.428 1.43-8.092-1.999-10.417-13.368-9.064-26.249-12.306-34.702-13.43-4.764-.634-9.508.875-13.024 4.137-3.52 3.264-5.383 7.888-5.111 12.688 1.229 21.662 9.911 35.084 10.28 35.645 1.441 2.19 3.833 3.378 6.272 3.378 1.415 0 2.846-.4 4.116-1.236 3.46-2.277 4.419-6.927 2.143-10.388-.068-.104-6.849-10.852-7.835-28.249-.02-.334.093-.617.334-.84.236-.218.525-.307.849-.265z"/><path d="m281.976 295.209c-17.238-.565-34.717-.565-51.955 0-28.956.95-52.207 24.481-52.935 53.573-.16 6.428-.16 12.947 0 19.375.728 29.091 23.979 52.623 52.935 53.573 8.619.283 17.298.424 25.978.424s17.358-.141 25.978-.424c28.956-.95 52.207-24.481 52.935-53.573.16-6.428.16-12.946 0-19.375-.729-29.091-23.98-52.623-52.936-53.573zm37.938 72.573c-.528 21.155-17.409 38.267-38.431 38.956-16.91.555-34.061.555-50.971 0-21.021-.689-37.902-17.8-38.431-38.956-.154-6.179-.154-12.445 0-18.625.528-21.155 17.409-38.267 38.431-38.956 8.455-.277 16.971-.416 25.485-.416s17.03.139 25.485.416c21.021.689 37.902 17.8 38.431 38.956.155 6.179.155 12.446.001 18.625z"/><path d="m237.155 343.766c-4.143 0-7.5 3.358-7.5 7.5v15.943c0 4.142 3.357 7.5 7.5 7.5s7.5-3.358 7.5-7.5v-15.943c0-4.142-3.357-7.5-7.5-7.5z"/><path d="m274.841 343.766c-4.143 0-7.5 3.358-7.5 7.5v15.943c0 4.142 3.357 7.5 7.5 7.5s7.5-3.358 7.5-7.5v-15.943c0-4.142-3.358-7.5-7.5-7.5z"/><path d="m152.107 347.395c7.021 0 12.732-9.482 12.732-21.137s-5.712-21.136-12.732-21.136-12.731 9.481-12.731 21.136 5.711 21.137 12.731 21.137z"/><path d="m359.889 305.122c-7.021 0-12.732 9.481-12.732 21.136s5.712 21.137 12.732 21.137 12.731-9.482 12.731-21.137-5.711-21.136-12.731-21.136z"/><path d="m171.068 114.875c-10.14.054-14.143-.315-22.723-4.938-3.647-1.966-8.195-.602-10.16 3.045s-.602 8.195 3.045 10.16c8.747 4.713 14.772 6.19 22.38 6.596v4.624c0 4.142 3.357 7.5 7.5 7.5s7.5-3.358 7.5-7.5v-5.161c15.993-2.874 25.733-14.518 27.338-25.998 1.868-13.365-6.692-24.844-21.808-29.244-9.551-2.781-20.139-6.156-26.253-10.105-2.849-1.84-2.827-4.795-2.561-6.392.56-3.355 3.315-7.476 9.374-8.979 2.446-.607 4.729-.897 6.835-.972.057-.003.115-.004.172-.009 9.253-.277 14.972 3.688 15.368 3.971 3.294 2.453 7.959 1.798 10.45-1.48 2.505-3.298 1.862-8.003-1.436-10.509-.393-.298-6.891-5.114-17.48-6.571v-4.009c0-4.142-3.357-7.5-7.5-7.5s-7.5 3.358-7.5 7.5v4.47c-.83.161-1.667.337-2.521.549-10.802 2.68-18.871 10.951-20.559 21.071-1.439 8.633 2.093 16.856 9.218 21.458 6.235 4.028 14.985 7.479 30.198 11.908 7.896 2.298 11.958 6.951 11.146 12.765-1.237 8.868-11.24 13.703-20.023 13.75z"/></g></g></svg>