<svg fill="white" id="Capa_1" enable-background="new 0 0 512 512" height="512" viewBox="0 0 512 512" width="512" xmlns="http://www.w3.org/2000/svg"><g><circle cx="296" cy="260" r="10"/><circle cx="216" cy="260" r="10"/><path d="m254.93 110c.1.041 11.07-.292 11.07 10 0 5.514-4.486 10-10 10-3.175 0-6.092-1.46-8.004-4.005-3.316-4.416-9.584-5.307-14.001-1.991-4.416 3.317-5.307 9.585-1.991 14.001 3.575 4.76 8.489 8.298 13.996 10.256v6.739c0 5.523 4.477 10 10 10s10-4.477 10-10v-6.72c11.639-4.128 20-15.243 20-28.28 0-18.166-16.026-30-27.52-30-.1-.036-12.48 1.143-12.48-10 0-5.514 4.486-10 10-10 3.175 0 6.092 1.46 8.004 4.005 3.317 4.416 9.585 5.308 14.001 1.991s5.307-9.585 1.991-14.001c-3.575-4.76-8.489-8.298-13.996-10.256v-6.739c0-5.523-4.477-10-10-10s-10 4.477-10 10v6.72c-11.639 4.128-20 15.243-20 28.28 0 17.187 14.49 30 28.93 30z"/><path d="m186 350c0 28.038 30.748 50 70 50s70-21.962 70-50-30.748-50-70-50-70 21.962-70 50zm70-30c27.103 0 50 13.738 50 30s-22.897 30-50 30-50-13.738-50-30 22.897-30 50-30z"/><circle cx="382" cy="426" r="10"/><path d="m121.546 432.44c14.627 16.207 24.454 44.162 24.454 69.56 0 5.523 4.477 10 10 10h60c5.523 0 10-4.477 10-10v-12.096c10.033 1.393 20.082 2.096 30 2.096s19.967-.703 30-2.096v12.096c0 5.523 4.477 10 10 10h60c5.523 0 10-4.477 10-10 0-10.608 1.75-22.047 5.062-33.081 1.587-5.29-1.414-10.865-6.704-12.453-5.291-1.586-10.865 1.415-12.453 6.704-2.852 9.502-4.711 19.308-5.489 28.83h-40.416v-13.89c0-6.28-5.731-11.011-11.901-9.818-12.708 2.46-25.527 3.708-38.099 3.708s-25.391-1.248-38.099-3.708c-6.183-1.192-11.901 3.548-11.901 9.818v13.89h-40.406c-2.199-27.402-13.172-55.199-29.199-72.958-18.749-20.78-30.395-54.899-30.395-89.042 0-26.808 7.138-54.771 20.641-80.864 1.947-3.762 1.312-8.343-1.584-11.434-12.289-13.114-19.057-30.055-19.057-47.702v-10h10c14.958 0 29.396 4.894 41.754 14.153 3.736 2.799 8.911 2.642 12.469-.38 7.27-6.173 14.914-11.573 22.785-16.137 17.776 14.457 39.864 22.364 62.992 22.364 23.129 0 45.219-7.908 62.992-22.364 7.871 4.563 15.515 9.963 22.785 16.137 3.558 3.021 8.733 3.179 12.469.38 12.358-9.259 26.796-14.153 41.754-14.153h10v10c0 17.647-6.768 34.588-19.057 47.702-2.896 3.091-3.531 7.672-1.584 11.434 13.503 26.093 20.641 54.056 20.641 80.864 0 18.6-3.381 37.314-9.779 54.12-1.965 5.162.626 10.938 5.788 12.903 5.16 1.965 10.938-.625 12.903-5.788 7.254-19.054 11.088-40.229 11.088-61.235 0-27.894-6.842-56.778-19.838-83.949 12.839-15.985 19.838-35.636 19.838-56.051v-20c0-5.523-4.477-10-10-10h-20c-16.728 0-32.907 4.706-47.234 13.678-4.931-3.846-10.005-7.383-15.183-10.609 14.365-17.715 22.417-40.071 22.417-63.069 0-55.14-44.86-100-100-100s-100 44.86-100 100c0 22.998 8.052 45.354 22.417 63.069-5.178 3.226-10.252 6.763-15.183 10.609-14.327-8.972-30.506-13.678-47.234-13.678h-20c-5.523 0-10 4.477-10 10v20c0 20.415 6.999 40.066 19.838 56.051-12.996 27.171-19.838 56.055-19.838 83.949 0 39.475 13.288 77.77 35.546 102.44zm134.454-412.44c44.112 0 80 35.888 80 80 0 44.719-36.275 80-80 80-42.959 0-80-34.593-80-80 0-44.112 35.888-80 80-80z"/></g></svg>